<svg xmlns="http://www.w3.org/2000/svg" viewBox="0 0 248.33 248.33"><title>logo2</title><circle cx="124.17" cy="124.17" r="113.89" fill="#443f54"/><path d="M249.17,125c0-.64,0-1.27,0-1.91l-13.47-9,11.49-11.4c-.23-1.28-.47-2.55-.74-3.81l-15-6.17,9.05-13.44c-.48-1.2-1-2.39-1.47-3.58l-15.92-3.12,6.25-14.93c-.71-1.09-1.42-2.17-2.16-3.24L211,54.5l3.21-15.85c-.91-.94-1.83-1.86-2.77-2.77l-15.84,3.2.05-16.19c-1.07-.74-2.15-1.45-3.24-2.16L177.45,27l-3.11-15.91c-1.18-.52-2.38-1-3.58-1.47l-13.45,9-6.15-15c-1.26-.27-2.53-.51-3.81-.74L135.94,14.35,127,.88c-.67,0-1.33-.05-2-.05s-1.27,0-1.91.05l-9,13.47L102.74,2.86c-1.28.23-2.55.47-3.81.74l-6.17,15-13.44-9c-1.2.48-2.39,1-3.58,1.47L72.62,26.92,57.69,20.68c-1.09.71-2.17,1.42-3.24,2.16L54.5,39,38.65,35.82c-.94.91-1.86,1.83-2.77,2.77l3.2,15.84-16.19,0c-.74,1.07-1.45,2.15-2.16,3.24L27,72.55,11.05,75.66c-.52,1.18-1,2.38-1.47,3.58l9,13.45-15,6.15c-.27,1.26-.51,2.53-.74,3.81l11.47,11.41L.88,123c0,.67-.05,1.33-.05,2s0,1.27.05,1.91l13.47,9L2.86,147.26c.23,1.28.47,2.55.74,3.81l15,6.17-9,13.44c.48,1.2,1,2.39,1.47,3.58l15.92,3.12-6.25,14.93c.71,1.09,1.42,2.17,2.16,3.24L39,195.5l-3.21,15.85c.91.94,1.83,1.86,2.77,2.77l15.84-3.2,0,16.19c1.07.74,2.15,1.45,3.24,2.16L72.55,223,75.66,239c1.18.52,2.38,1,3.58,1.47l13.45-9,6.15,15c1.26.27,2.53.51,3.81.74l11.41-11.47L123,249.12c.67,0,1.33,0,2,0s1.27,0,1.91,0l9-13.47,11.4,11.49c1.28-.23,2.55-.47,3.81-.74l6.17-15,13.44,9.05c1.2-.48,2.39-1,3.58-1.47l3.12-15.92,14.93,6.25c1.09-.71,2.17-1.42,3.24-2.16L195.5,211l15.85,3.21c.94-.91,1.86-1.83,2.77-2.77l-3.2-15.84,16.19.05c.74-1.07,1.45-2.15,2.16-3.24L223,177.45,239,174.34c.52-1.18,1-2.38,1.47-3.58l-9-13.45,15-6.15c.27-1.26.51-2.53.74-3.81l-11.47-11.41L249.12,127C249.13,126.33,249.17,125.67,249.17,125Z" transform="translate(-0.83 -0.83)" fill="#443f54"/><circle cx="124.17" cy="123.31" r="90.77" fill="#443f54" stroke="#fff" stroke-miterlimit="10" stroke-width="3"/><path d="M125,54.14,91.64,99.9,77.46,167.22,125,195.86l47.54-28.64L158.36,99.61ZM99.31,101.08,125,66l25.69,35.13L125,178.15Zm54.92,11.52L164.86,164l-34.84,21ZM85.14,164,95.77,112.6,120,184.94Z" transform="translate(-0.83 -0.83)" fill="#fff"/><path d="M178,207.63a8.62,8.62,0,0,1-1.83-.2,8.75,8.75,0,0,1,1.82-17.3,8.86,8.86,0,0,1,1.84.2,8.75,8.75,0,0,1-1.83,17.3Z" transform="translate(-0.83 -0.83)" fill="#fff"/><path d="M178,191.64a7.24,7.24,0,1,1-7.06,5.72,7.21,7.21,0,0,1,7.06-5.72m0-3h0a10.25,10.25,0,0,0-2.14,20.26,10.39,10.39,0,0,0,2.15.22,10.24,10.24,0,0,0,8.59-15.8,10.17,10.17,0,0,0-6.45-4.45,9.7,9.7,0,0,0-2.15-.23Z" transform="translate(-0.83 -0.83)" fill="#443f54"/><path d="M73.32,207.63a8.75,8.75,0,0,1-1.82-17.3,8.68,8.68,0,0,1,1.83-.19,8.75,8.75,0,0,1,0,17.49Z" transform="translate(-0.83 -0.83)" fill="#fff"/><path d="M73.33,191.64a7.23,7.23,0,1,1-1.52.16,7.24,7.24,0,0,1,1.52-.16m0-3h0a10.39,10.39,0,0,0-2.15.22,10.25,10.25,0,0,0,2.14,20.26,9.85,9.85,0,0,0,2.16-.23,10.24,10.24,0,0,0-2.15-20.25Z" transform="translate(-0.83 -0.83)" fill="#443f54"/><path d="M38.74,103.94A8.74,8.74,0,0,1,35.2,87.21a8.62,8.62,0,0,1,3.53-.76,8.75,8.75,0,1,1,0,17.49Z" transform="translate(-0.83 -0.83)" fill="#fff"/><path d="M38.73,88a7.25,7.25,0,1,1-2.92.63A7,7,0,0,1,38.73,88m0-3h0a10.24,10.24,0,1,0,9.36,6.1A10.23,10.23,0,0,0,38.73,85Z" transform="translate(-0.83 -0.83)" fill="#443f54"/><path d="M125,39.42a8.65,8.65,0,0,1-6.32-2.71A8.74,8.74,0,0,1,125,21.94a8.64,8.64,0,0,1,6.31,2.7A8.74,8.74,0,0,1,125,39.42Z" transform="translate(-0.83 -0.83)" fill="#fff"/><path d="M125,23.44a7.24,7.24,0,1,1-5,2,7.21,7.21,0,0,1,5-2m0-3h0a10.24,10.24,0,1,0,7.4,3.17,10.17,10.17,0,0,0-7.4-3.17Z" transform="translate(-0.83 -0.83)" fill="#443f54"/><path d="M212.21,103.94a8.62,8.62,0,0,1-3.54-.75,8.75,8.75,0,0,1,3.54-16.74,8.63,8.63,0,0,1,3.54.76,8.74,8.74,0,0,1-3.54,16.73Z" transform="translate(-0.83 -0.83)" fill="#fff"/><path d="M212.21,88a7.09,7.09,0,0,1,2.93.63,7.2,7.2,0,1,1-2.93-.63m0-3h0a10.23,10.23,0,1,0,4.15.88,10.23,10.23,0,0,0-4.15-.88Z" transform="translate(-0.83 -0.83)" fill="#443f54"/></svg>